<?xml version="1.0" encoding="UTF-8"?>
<svg xmlns="http://www.w3.org/2000/svg" version="1.1" viewBox="0 0 869.3 865.3">
	<!-- Generator: Adobe Illustrator 30.3.0, SVG Export Plug-In . SVG Version: 2.1.3 Build 182)  -->
	<defs>
		<style>
			.st0 {
			stroke-linecap: round;
			stroke-linejoin: round;
			stroke-width: 6px;
			}

			.st0, .st1 {
			fill: none;
			stroke: #000;
			}

			.st1 {
			stroke-miterlimit: 10;
			stroke-width: 5.9px;
			}
		</style>
	</defs>
	<g id="Base">
		<circle class="st0" cx="434.6" cy="432.6" r="405.9"/>
	</g>
	<g id="label-C5">
		<path d="M496.1,611.3c.1.3,0,.6-.4.8-2.5,1.5-5.8,2.5-8.9,2.5-8.8,0-14.7-6.1-14.7-15.3s5.9-15.3,14.7-15.3,6.5.9,8.9,2.5c.3.2.5.5.4.8l-2.8,5.9c-.2.4-.5.5-.8.3-1.6-.9-3.1-1.2-4.9-1.2-3.8,0-6.4,2.8-6.4,7s2.6,7,6.4,7,3.4-.3,4.9-1.2c.3-.2.6,0,.8.3l2.8,5.9Z"/>
	</g>
	<g id="note-C5">
		<ellipse class="st1" cx="486.1" cy="601.6" rx="29.2" ry="34.3" transform="translate(-118.6 119.3) rotate(-12.5)"/>
	</g>
	<g id="label-C4">
		<path d="M545.6,753.8c.2.4,0,.8-.5,1-3.3,2-7.7,3.3-11.9,3.3-11.7,0-19.5-8.2-19.5-20.4s7.8-20.4,19.5-20.4,8.6,1.3,11.9,3.3c.5.2.7.6.5,1l-3.8,7.9c-.2.5-.6.7-1.1.5-2.1-1.2-4.1-1.6-6.6-1.6-5.1,0-8.5,3.7-8.5,9.4s3.4,9.4,8.5,9.4,4.5-.4,6.6-1.6c.5-.2.9,0,1.1.5l3.8,7.9Z"/>
	</g>
	<g id="note-C4">
		<path class="st1" d="M512.6,666.9h0c-36.7,9.2-61.8,43.1-60,80.9l4.3,88.9c68-3.7,131.5-24.2,186.5-57.3l-42.3-74.6c-17.6-31.1-53.8-46.6-88.5-37.9Z"/>
	</g>
	<g id="label-F6">
		<path d="M427.9,484.2c.2,0,.3.1.3.3v3.2c0,.2-.1.3-.3.3h-5.4v1.9h4.3c.2,0,.3.1.3.3l-.3,3c0,.1-.2.3-.4.3h-3.9v5.1c0,.1-.1.3-.3.3h-3.8c-.2,0-.3-.2-.3-.3v-14.1c0-.1.1-.3.3-.3h9.5Z"/>
	</g>
	<g id="note-F6">
		<ellipse class="st1" cx="422.5" cy="493" rx="28.8" ry="24.5" transform="translate(-145.8 807) rotate(-78.3)"/>
	</g>
	<g id="label-F5">
		<path d="M410.4,566.7c.4,0,.6.3.6.6v6.4c0,.4-.3.6-.6.6h-10.8v3.9h8.6c.4,0,.6.3.6.6l-.6,6c0,.3-.3.6-.7.6h-7.8v10.2c0,.3-.3.6-.6.6h-7.5c-.3,0-.6-.3-.6-.6v-28.2c0-.3.3-.6.6-.6h19Z"/>
	</g>
	<g id="note-F5">
		<ellipse class="st1" cx="401.2" cy="582.6" rx="43.8" ry="37.3" transform="translate(-252 854.1) rotate(-78)"/>
	</g>
	<g id="label-F4">
		<path d="M378.1,714.9c.5,0,.9.4.9.8v8.6c0,.5-.3.9-.9.9h-14.4v5.2h11.4c.5,0,.8.4.7.7l-.8,8c0,.3-.5.7-1,.7h-10.4v13.6c0,.4-.4.8-.9.8h-10.1c-.5,0-.8-.5-.8-.9v-37.5c0-.4.3-.8.8-.8h25.3Z"/>
	</g>
	<g id="note-F4">
		<path class="st1" d="M434.6,837.3c7.5,0,14.9-.2,22.2-.6l-5.2-107.7c-2-40.9-31.6-75.1-71.7-83h0c-40.5-8-81.1,13-98.2,50.5l-41.4,91.2c57.7,31.6,123.9,49.6,194.3,49.6Z"/>
	</g>
	<g id="label-Bb5">
		<g>
			<path d="M302.9,545.1c5.2,0,8.6,3.1,8.6,7.7s-1.4,5-3.5,5.6c2.5.6,4.1,3,4.1,6.3s-3.4,7.7-8.6,7.7h-12.5c-.3,0-.5-.3-.5-.5v-26.1c0-.3.2-.6.5-.6h11.9ZM301.1,555.7c1.2,0,2-.7,2-1.8s-.8-1.8-2-1.8h-2.5v3.6h2.5ZM301.9,565.2c1.1,0,1.9-.7,1.9-1.9s-.8-1.9-1.9-1.9h-3.2v3.8h3.2Z"/>
			<path d="M322.2,550.2c.9-.7,2.2-1.1,3.6-1.1,4.6,0,7.8,3.4,7.8,8.6s-3.1,8.6-7.8,8.6-3.9-.8-5-1.9l-.4,1.1c-.1.2-.2.4-.5.4h-3.3c-.2,0-.4-.2-.4-.4v-20.6c0-.2.2-.4.4-.4h5.2c.2,0,.4.2.4.4v5.5h0ZM322.2,559.6c.4,1,1.3,1.6,2.4,1.6,1.6,0,2.7-1.4,2.7-3.6s-1.1-3.4-2.7-3.4-2,.7-2.4,1.6v3.7h0Z"/>
		</g>
	</g>
	<g id="note-Bb5">
		<ellipse class="st1" cx="311" cy="558.5" rx="38.2" ry="32.5" transform="translate(-303.8 383.5) rotate(-45)"/>
	</g>
	<g id="label-Bb4">
		<g>
			<path d="M194.5,640.5c7.8,0,12.9,4.6,12.9,11.6s-2.1,7.5-5.3,8.4c3.7.9,6.2,4.5,6.2,9.5s-5.2,11.6-12.9,11.6h-18.8c-.5,0-.8-.5-.8-.8v-39.3c0-.5.4-.9.8-.9h17.9ZM191.7,656.6c1.8,0,3-1.1,3-2.7s-1.2-2.7-3-2.7h-3.7v5.5h3.7ZM192.8,670.9c1.7,0,2.9-1.1,2.9-2.8s-1.2-2.8-2.9-2.8h-4.8v5.7h4.8Z"/>
			<path d="M223.5,648.2c1.4-1.1,3.4-1.7,5.5-1.7,7,0,11.7,5.2,11.7,12.9s-4.7,12.9-11.7,12.9-5.8-1.2-7.6-2.9l-.6,1.6c-.2.4-.4.6-.7.6h-5c-.4,0-.6-.3-.6-.6v-31c0-.3.3-.6.6-.6h7.8c.4,0,.6.3.6.6v8.3h0ZM223.5,662.3c.5,1.5,2,2.5,3.5,2.5,2.5,0,4.1-2.2,4.1-5.4s-1.6-5.2-4.1-5.2-3,1-3.5,2.5v5.6h0Z"/>
		</g>
	</g>
	<g id="note-Bb4">
		<path class="st1" d="M268.7,605.8h0c-23.5-22.7-58.9-27.6-87.7-12.2l-92,49.6c36.9,60.4,89.2,110.4,151.4,144.6l44.3-97c13.2-28.9,6.8-62.9-16-85Z"/>
	</g>
	<g id="label-Eb6">
		<g>
			<path d="M381.9,433c.2,0,.3.1.3.3v3.2c0,.2-.2.3-.3.3h-9.9c-.2,0-.3-.2-.3-.3v-14c0-.2,0-.3.3-.3h9.6c.2,0,.3.2.3.3v3.2c0,.2-.2.3-.3.3h-5.5v1.7h4.5c.2,0,.3.2.3.3l-.3,3c0,.1-.2.3-.4.3h-4.1v1.8h5.8Z"/>
			<path d="M387.6,424.9c.5-.4,1.2-.6,1.9-.6,2.5,0,4.2,1.9,4.2,4.6s-1.7,4.6-4.2,4.6-2.1-.4-2.7-1l-.2.6c0,.1-.1.2-.3.2h-1.8c-.1,0-.2,0-.2-.2v-11.1c0,0,0-.2.2-.2h2.8c.1,0,.2,0,.2.2v3h0ZM387.6,430c.2.5.7.9,1.3.9.9,0,1.5-.8,1.5-1.9s-.6-1.9-1.5-1.9-1.1.4-1.3.9v2h0Z"/>
		</g>
	</g>
	<g id="note-Eb6">
		<ellipse class="st1" cx="381.6" cy="429.1" rx="28.8" ry="25.5" transform="translate(-74.5 80.3) rotate(-10.9)"/>
	</g>
	<g id="label-Eb5">
		<g>
			<path d="M290.9,472.4c.3,0,.6.3.6.5v6.5c0,.3-.3.6-.6.6h-19.7c-.3,0-.6-.3-.6-.6v-28.1c0-.4.2-.6.6-.6h19.3c.4,0,.6.3.6.6v6.4c0,.4-.3.6-.6.6h-11v3.4h9c.4,0,.6.3.5.5l-.6,5.9c0,.3-.3.5-.7.5h-8.2v3.6h11.6Z"/>
			<path d="M302.3,456.3c1-.8,2.4-1.2,3.9-1.2,5,0,8.4,3.7,8.4,9.2s-3.4,9.2-8.4,9.2-4.2-.8-5.4-2.1l-.5,1.2c-.1.3-.3.5-.5.5h-3.6c-.3,0-.5-.2-.5-.5v-22.1c0-.2.2-.5.5-.5h5.6c.3,0,.5.2.5.5v5.9h0ZM302.3,466.3c.4,1,1.4,1.8,2.5,1.8,1.8,0,2.9-1.6,2.9-3.8s-1.2-3.7-2.9-3.7-2.1.7-2.5,1.8v4h0Z"/>
		</g>
	</g>
	<g id="note-Eb5">
		<ellipse class="st1" cx="289.5" cy="464.8" rx="48.7" ry="40" transform="translate(-97.5 77.4) rotate(-13)"/>
	</g>
	<g id="label-Eb4">
		<g>
			<path d="M125.4,518.7c.5,0,.9.4.9.7v9c0,.5-.5.8-.9.8h-27.4c-.5,0-.8-.5-.9-.9v-38.9c0-.5.3-.8.8-.8h26.7c.5,0,.9.5.9.8v8.9c0,.5-.5.9-.9.9h-15.3v4.7h12.4c.5,0,.8.5.7.7l-.8,8.2c0,.4-.5.7-1,.7h-11.4v5h16.1Z"/>
			<path d="M141.2,496.4c1.4-1.1,3.3-1.7,5.4-1.7,6.9,0,11.6,5.1,11.6,12.8s-4.7,12.8-11.6,12.8-5.8-1.2-7.5-2.9l-.6,1.6c-.2.4-.4.6-.7.6h-5c-.4,0-.6-.3-.6-.6v-30.7c0-.3.3-.6.6-.6h7.7c.4,0,.6.3.6.6v8.2h0ZM141.2,510.3c.5,1.4,2,2.4,3.5,2.4,2.4,0,4.1-2.2,4.1-5.3s-1.6-5.1-4.1-5.1-3,1-3.5,2.4v5.6h0Z"/>
		</g>
	</g>
	<g id="note-Eb4">
		<path class="st1" d="M216,483.2h0c-11.5-40.4-46.4-69.7-88.2-74.2l-96.4-10.3c-.9,11.2-1.4,22.5-1.4,33.9,0,77.1,21.6,149.2,59,210.6l76.3-40.6c42.9-22.9,64.1-72.6,50.7-119.4Z"/>
	</g>
	<g id="label-G#5">
		<g>
			<path d="M267,367c.3,0,.6.3.6.6v13.5c0,.4-.2.8-.5,1-2.6,2.2-6.5,3.5-10.6,3.5-9.2,0-15.3-6.1-15.3-15.3s6.1-15.3,15.3-15.3,6.5.9,8.9,2.5c.3.2.5.5.4.8l-2.1,6.3c-.1.3-.4.4-.8.3-1.7-.9-4-1.5-6.1-1.5-3.9,0-6.6,2.8-6.6,7s2.6,7.1,6.6,7.1,2.6-.3,3.1-.8v-2.5h-3.9c-.4,0-.6-.2-.7-.5l-.6-5.9c0-.4.2-.7.7-.7h11.5ZM260.2,375.9v.2-.2Z"/>
			<path d="M286.1,375.8h3.3c.3,0,.6.3.6.6v4c0,.3-.3.6-.6.6h-4.9l-1.1,3.5c0,.3-.4.5-.7.5h-4.2c-.3,0-.5-.3-.4-.5l1.1-3.5h-1.7l-1.1,3.5c0,.3-.4.5-.7.5h-4.1c-.3,0-.5-.3-.4-.5l1.1-3.5h-1.2c-.3,0-.6-.3-.6-.6v-4c0-.3.2-.6.6-.6h2.9l.5-1.4h-3.3c-.3,0-.6-.3-.6-.6v-4.1c0-.3.2-.6.6-.6h4.9l1.1-3.5c0-.3.4-.5.7-.5h4.2c.3,0,.5.3.4.5l-1.1,3.5h1.6l1.1-3.5c0-.3.4-.5.7-.5h4.1c.3,0,.5.3.4.5l-1.1,3.5h1.2c.3,0,.6.3.6.6v4.1c0,.3-.3.6-.6.6h-2.9l-.4,1.4ZM279.6,374.4l-.5,1.4h1.7l.4-1.4h-1.6Z"/>
		</g>
	</g>
	<g id="note-G#5">
		<ellipse class="st1" cx="266.5" cy="371.6" rx="34.9" ry="41" transform="translate(-157.5 542.8) rotate(-76.3)"/>
	</g>
	<g id="label-G#4">
		<g>
			<path d="M126.8,323c.5,0,.9.4.9.8v18.1c0,.5-.3,1-.7,1.4-3.4,2.9-8.6,4.6-14.1,4.6-12.3,0-20.4-8.2-20.4-20.4s8.2-20.4,20.4-20.4,8.6,1.2,11.9,3.3c.5.2.6.7.5,1l-2.8,8.3c-.2.4-.6.6-1.1.5-2.3-1.3-5.3-2-8.2-2-5.2,0-8.8,3.7-8.8,9.3s3.5,9.4,8.8,9.4,3.5-.4,4.1-1.1v-3.3h-5.2c-.5,0-.9-.2-.9-.6l-.7-7.8c0-.6.3-1,.9-1h15.4ZM117.7,334.9v.2-.2Z"/>
			<path d="M152.2,334.7h4.4c.4,0,.7.4.7.8v5.4c0,.5-.3.8-.7.8h-6.6l-1.4,4.7c-.1.3-.6.7-1,.7h-5.6c-.4,0-.6-.3-.5-.7l1.5-4.7h-2.2l-1.5,4.7c-.1.3-.6.7-1,.7h-5.5c-.4,0-.6-.3-.5-.7l1.4-4.7h-1.6c-.5,0-.7-.3-.7-.8v-5.4c0-.4.3-.8.7-.8h3.8l.6-1.9h-4.4c-.5,0-.7-.3-.7-.7v-5.5c0-.4.3-.9.7-.9h6.6l1.4-4.7c.1-.3.6-.7,1-.7h5.6c.4,0,.6.3.5.7l-1.4,4.7h2.2l1.5-4.7c.1-.3.6-.7,1-.7h5.5c.5,0,.7.3.6.7l-1.5,4.7h1.6c.4,0,.7.5.7.9v5.5c0,.4-.3.7-.7.7h-3.8l-.6,1.9ZM143.6,332.7l-.6,1.9h2.2l.6-1.9h-2.2Z"/>
		</g>
	</g>
	<g id="note-G#4">
		<path class="st1" d="M125.4,408.4c37.6,3.9,72.7-19.5,83.6-55.7h0c9.9-33.1-2.9-68.9-31.7-88.1l-81-54.1c-36.1,54.9-59.2,119-64.9,188.1l94.1,9.8Z"/>
	</g>
	<g id="label-C#5">
		<g>
			<path d="M299.3,300c.1.3,0,.5-.3.7-2.2,1.4-5.2,2.2-8.1,2.2-7.9,0-13.2-5.5-13.2-13.8s5.3-13.8,13.2-13.8,5.8.8,8.1,2.2c.3.2.5.4.3.7l-2.5,5.3c-.2.3-.4.5-.7.3-1.4-.8-2.8-1.1-4.5-1.1-3.5,0-5.8,2.5-5.8,6.3s2.3,6.3,5.8,6.3,3-.3,4.5-1.1c.3-.2.6,0,.7.3l2.5,5.3Z"/>
			<path d="M315.6,294h3c.3,0,.5.3.5.5v3.7c0,.3-.2.5-.5.5h-4.5l-1,3.2c0,.2-.4.5-.7.5h-3.8c-.3,0-.4-.2-.3-.5l1-3.2h-1.5l-1,3.2c0,.2-.4.5-.7.5h-3.7c-.3,0-.4-.2-.3-.5l1-3.2h-1.1c-.3,0-.5-.2-.5-.5v-3.7c0-.3.2-.5.5-.5h2.6l.4-1.3h-3c-.3,0-.5-.2-.5-.5v-3.7c0-.3.2-.6.5-.6h4.5l1-3.2c0-.2.4-.5.7-.5h3.8c.3,0,.4.2.3.5l-1,3.2h1.5l1-3.2c0-.2.4-.5.7-.5h3.7c.3,0,.5.2.4.5l-1,3.2h1.1c.3,0,.5.3.5.6v3.7c0,.3-.2.5-.5.5h-2.6l-.4,1.3ZM309.8,292.7l-.4,1.3h1.5l.4-1.3h-1.5Z"/>
		</g>
	</g>
	<g id="note-C#5">
		<ellipse class="st1" cx="298.6" cy="289.7" rx="30.2" ry="35.4" transform="translate(-117.4 296) rotate(-45)"/>
	</g>
	<g id="label-F#6">
		<g>
			<path d="M398.4,347.3c.2,0,.3.1.3.3v3.2c0,.2-.1.3-.3.3h-5.4v1.9h4.3c.2,0,.3.1.3.3l-.3,3c0,.1-.2.3-.4.3h-3.9v5.1c0,.1-.1.3-.3.3h-3.8c-.2,0-.3-.2-.3-.3v-14.1c0-.1.1-.3.3-.3h9.5Z"/>
			<path d="M407.5,357.3h1.6c.1,0,.3.1.3.3v2c0,.2-.1.3-.3.3h-2.5l-.5,1.7c0,.1-.2.3-.4.3h-2.1c-.1,0-.2-.1-.2-.3l.6-1.7h-.8l-.6,1.7c0,.1-.2.3-.4.3h-2.1c-.1,0-.2-.1-.2-.3l.5-1.7h-.6c-.2,0-.3-.1-.3-.3v-2c0-.1.1-.3.3-.3h1.4l.2-.7h-1.7c-.2,0-.3-.1-.3-.3v-2c0-.1.1-.3.3-.3h2.5l.5-1.7c0-.1.2-.3.4-.3h2.1c.1,0,.2.1.2.3l-.5,1.7h.8l.6-1.7c0-.1.2-.3.4-.3h2.1c.2,0,.3.1.2.3l-.6,1.7h.6c.1,0,.3.2.3.3v2c0,.1-.1.3-.3.3h-1.4l-.2.7ZM404.2,356.6l-.2.7h.8l.2-.7h-.8Z"/>
		</g>
	</g>
	<g id="note-F#6">
		<ellipse class="st1" cx="398.3" cy="355.8" rx="23.6" ry="27.7" transform="translate(-103.8 173.9) rotate(-21.9)"/>
	</g>
	<g id="label-F#5">
		<g>
			<path d="M383.6,247.5c.4,0,.6.3.6.6v6.4c0,.4-.3.6-.6.6h-10.8v3.9h8.6c.4,0,.6.3.6.6l-.6,6c0,.3-.3.6-.7.6h-7.8v10.2c0,.3-.3.6-.6.6h-7.5c-.3,0-.6-.3-.6-.6v-28.2c0-.3.3-.6.6-.6h19Z"/>
			<path d="M401.6,267.7h3.3c.3,0,.6.3.6.6v4c0,.3-.3.6-.6.6h-4.9l-1.1,3.5c0,.3-.4.5-.7.5h-4.2c-.3,0-.5-.3-.4-.5l1.1-3.5h-1.7l-1.1,3.5c0,.3-.4.5-.7.5h-4.1c-.3,0-.5-.3-.4-.5l1.1-3.5h-1.2c-.3,0-.6-.3-.6-.6v-4c0-.3.2-.6.6-.6h2.9l.5-1.4h-3.3c-.3,0-.6-.3-.6-.6v-4.1c0-.3.2-.6.6-.6h4.9l1.1-3.5c0-.3.4-.5.7-.5h4.2c.3,0,.5.3.4.5l-1.1,3.5h1.6l1.1-3.5c0-.3.4-.5.7-.5h4.1c.3,0,.5.3.4.5l-1.1,3.5h1.2c.3,0,.6.3.6.6v4.1c0,.3-.3.6-.6.6h-2.9l-.4,1.4ZM395.2,266.2l-.5,1.4h1.7l.4-1.4h-1.6Z"/>
		</g>
	</g>
	<g id="note-F#5">
		<ellipse class="st1" cx="384.7" cy="262.9" rx="33.6" ry="39.4" transform="translate(-60.3 124.6) rotate(-17.1)"/>
	</g>
	<g id="label-C#4">
		<g>
			<path d="M202.7,210.7c.2.4,0,.8-.5,1-3.3,2-7.7,3.3-11.9,3.3-11.7,0-19.5-8.2-19.5-20.4s7.8-20.4,19.5-20.4,8.6,1.3,11.9,3.3c.5.2.7.6.5,1l-3.8,7.9c-.2.5-.6.7-1.1.5-2.1-1.2-4.1-1.6-6.6-1.6-5.1,0-8.5,3.7-8.5,9.4s3.4,9.4,8.5,9.4,4.5-.4,6.6-1.6c.5-.2.9,0,1.1.5l3.8,7.9Z"/>
			<path d="M226.8,201.8h4.4c.4,0,.7.4.7.8v5.4c0,.5-.3.8-.7.8h-6.6l-1.4,4.7c-.1.3-.6.7-1,.7h-5.6c-.4,0-.6-.3-.5-.7l1.5-4.7h-2.2l-1.5,4.7c-.1.3-.6.7-1,.7h-5.5c-.4,0-.6-.3-.5-.7l1.4-4.7h-1.6c-.5,0-.7-.3-.7-.8v-5.4c0-.4.3-.8.7-.8h3.8l.6-1.9h-4.4c-.5,0-.7-.3-.7-.7v-5.5c0-.4.3-.9.7-.9h6.6l1.4-4.7c.1-.3.6-.7,1-.7h5.6c.4,0,.6.3.5.7l-1.4,4.7h2.2l1.5-4.7c.1-.3.6-.7,1-.7h5.5c.5,0,.7.3.6.7l-1.5,4.7h1.6c.4,0,.7.5.7.9v5.5c0,.4-.3.7-.7.7h-3.8l-.6,1.9ZM218.2,199.9l-.6,1.9h2.2l.6-1.9h-2.2Z"/>
		</g>
	</g>
	<g id="note-C#4">
		<path class="st1" d="M96.3,210.5l71.7,47.6c26.7,17.7,61.8,15.5,86.1-5.3h0c24.9-21.3,32.1-56.8,17.6-86.2l-41.4-83.4c-53.9,31.6-99.8,75.2-134.1,127.3Z"/>
	</g>
	<g id="label-F#4">
		<g>
			<path d="M340.3,99.4c.5,0,.9.4.9.8v8.6c0,.5-.3.9-.9.9h-14.4v5.2h11.4c.5,0,.8.4.7.7l-.8,8c0,.3-.5.7-1,.7h-10.4v13.6c0,.4-.4.8-.9.8h-10.1c-.5,0-.8-.5-.8-.9v-37.5c0-.4.3-.8.8-.8h25.3Z"/>
			<path d="M364.4,126.3h4.4c.4,0,.7.4.7.8v5.4c0,.5-.3.8-.7.8h-6.6l-1.4,4.7c-.1.3-.6.7-1,.7h-5.6c-.4,0-.6-.3-.5-.7l1.5-4.7h-2.2l-1.5,4.7c-.1.3-.6.7-1,.7h-5.5c-.4,0-.6-.3-.5-.7l1.4-4.7h-1.6c-.5,0-.7-.3-.7-.8v-5.4c0-.4.3-.8.7-.8h3.8l.6-1.9h-4.4c-.5,0-.7-.3-.7-.7v-5.5c0-.4.3-.9.7-.9h6.6l1.4-4.7c.1-.3.6-.7,1-.7h5.6c.4,0,.6.3.5.7l-1.4,4.7h2.2l1.5-4.7c.1-.3.6-.7,1-.7h5.5c.5,0,.7.3.6.7l-1.5,4.7h1.6c.4,0,.7.5.7.9v5.5c0,.4-.3.7-.7.7h-3.8l-.6,1.9ZM355.8,124.4l-.6,1.9h2.2l.6-1.9h-2.2Z"/>
		</g>
	</g>
	<g id="note-F#4">
		<path class="st1" d="M268.7,160.2c18.1,36.3,59.9,54.1,98.6,42h0c36.8-11.5,60.8-47.1,57.6-85.6l-7.3-88.2c-68.1,2.8-131.8,22.5-187.1,54.9l38.3,77Z"/>
	</g>
	<g id="label-B5">
		<path d="M479.3,225.5c5.6,0,9.3,3.3,9.3,8.3s-1.5,5.3-3.8,6c2.7.7,4.4,3.2,4.4,6.8s-3.7,8.3-9.2,8.3h-13.5c-.3,0-.6-.3-.6-.6v-28.2c0-.3.3-.6.6-.6h12.8ZM477.3,237c1.3,0,2.1-.8,2.1-2s-.9-2-2.1-2h-2.7v3.9h2.7ZM478.1,247.2c1.2,0,2.1-.8,2.1-2s-.9-2-2.1-2h-3.5v4.1h3.5Z"/>
	</g>
	<g id="note-B5">
		<ellipse class="st1" cx="476.5" cy="239.9" rx="39.4" ry="33.6" transform="translate(75.2 591.4) rotate(-67.9)"/>
	</g>
	<g id="label-B4">
		<path d="M498.1,89.3c7.4,0,12.4,4.4,12.4,11.1s-2,7.1-5.1,8c3.6.9,5.9,4.3,5.9,9s-4.9,11.1-12.3,11.1h-18c-.5,0-.8-.4-.8-.8v-37.5c0-.4.3-.9.8-.9h17.1ZM495.5,104.7c1.7,0,2.8-1,2.8-2.6s-1.1-2.6-2.8-2.6h-3.6v5.2h3.6ZM496.5,118.4c1.6,0,2.8-1.1,2.8-2.7s-1.1-2.7-2.8-2.7h-4.6v5.5h4.6Z"/>
	</g>
	<g id="note-B4">
		<path class="st1" d="M434.6,27.9c-5.7,0-11.5.1-17.1.4l7.5,91.8c2.7,33.3,28.1,60.4,61.1,65.4h0c30.8,4.6,61-11,75-38.8l41.5-82.3c-51.2-23.4-108.1-36.4-168-36.4Z"/>
	</g>
	<g id="label-E6">
		<path d="M473,366.4c.2,0,.3.1.3.3v3.3c0,.1-.1.3-.3.3h-9.9c-.1,0-.3-.2-.3-.3v-14.1c0-.2.1-.3.3-.3h9.7c.2,0,.3.1.3.3v3.2c0,.2-.1.3-.3.3h-5.6v1.7h4.5c.2,0,.3.1.3.3l-.3,3c0,.1-.2.3-.4.3h-4.1v1.8h5.8Z"/>
	</g>
	<g id="note-E6">
		<ellipse class="st1" cx="468.6" cy="363.1" rx="27.7" ry="23.6" transform="translate(-109.4 494.6) rotate(-50.6)"/>
	</g>
	<g id="label-E5">
		<path d="M550.2,310.2c.3,0,.6.3.6.6v6.5c0,.3-.3.6-.6.6h-19.8c-.3,0-.6-.3-.7-.6v-28.2c0-.4.2-.6.6-.6h19.4c.4,0,.7.3.7.6v6.4c0,.4-.3.6-.7.6h-11.1v3.4h9c.4,0,.6.3.6.6l-.6,6c0,.3-.3.6-.7.6h-8.3v3.6h11.6Z"/>
	</g>
	<g id="note-E5">
		<ellipse class="st1" cx="540.4" cy="302.6" rx="47" ry="38.2" transform="translate(-55.7 470.7) rotate(-45)"/>
	</g>
	<g id="label-E4">
		<path d="M654.2,194c.5,0,.9.3.9.7v8.7c0,.4-.4.8-.9.8h-26.4c-.4,0-.8-.5-.9-.9v-37.5c0-.5.3-.8.8-.8h25.8c.5,0,.9.4.9.8v8.6c0,.5-.4.9-.9.9h-14.8v4.5h12c.5,0,.8.4.7.7l-.8,8c0,.3-.5.7-1,.7h-11v4.8h15.5Z"/>
	</g>
	<g id="note-E4">
		<path class="st1" d="M578.2,248.7h0c28.1,26.4,70.5,30.5,103.2,10l87.3-54.6c-41.4-60.4-98.7-108.9-165.9-139.7l-42.3,84c-17,33.7-9.7,74.5,17.8,100.3Z"/>
	</g>
	<g id="label-A5">
		<path d="M618.3,376.3c.1.3,0,.6-.4.6h-8.4c-.4,0-.7-.2-.9-.6l-1.3-4.5h-8l-1.3,4.5c-.2.3-.5.6-.9.6h-8.4c-.3,0-.5-.3-.4-.6l9.6-28.3c.1-.3.6-.6,1-.6h8.7c.4,0,.9.3,1,.6l9.6,28.3ZM603.3,357.6l-2.3,8.1h4.6l-2.3-8.1Z"/>
	</g>
	<g id="note-A5">
		<ellipse class="st1" cx="603.7" cy="362.9" rx="39.4" ry="33.6" transform="translate(-86.8 223.8) rotate(-19.6)"/>
	</g>
	<g id="label-A4">
		<path d="M757.1,329.6c.2.3,0,.7-.5.7h-11.2c-.5,0-1-.3-1.2-.7l-1.7-6h-10.7l-1.7,6c-.2.5-.7.7-1.2.7h-11.2c-.5,0-.7-.4-.5-.7l12.8-37.7c.2-.3.8-.7,1.4-.7h11.6c.6,0,1.2.4,1.4.7l12.8,37.7ZM737.1,304.8l-3.1,10.8h6.1l-3.1-10.8Z"/>
	</g>
	<g id="note-A4">
		<path class="st1" d="M655.8,326.3l1.3,6.6c6.5,33.7,37.1,57.4,71.4,55.3l107.7-6.6c-8.2-65.3-32-125.7-67.5-177.4l-81.9,51.2c-24,15-36.3,43.2-30.9,71Z"/>
	</g>
	<g id="label-D6">
		<path d="M474.5,429.1c4.5,0,7.5,2.9,7.5,7.3s-3,7.3-7.5,7.3h-4.9c-.1,0-.3-.1-.3-.3v-14.1c0-.2.1-.3.3-.3h4.9ZM474.7,439.9c1.6,0,2.7-1.4,2.7-3.5s-1.1-3.5-2.7-3.5h-1.1v7h1.1Z"/>
	</g>
	<g id="note-D6">
		<ellipse class="st1" cx="475.1" cy="436.5" rx="25.7" ry="28.8" transform="translate(-103.3 722.4) rotate(-68.9)"/>
	</g>
	<g id="label-D5">
		<path d="M574.8,433.1c9,0,15,5.8,15,14.7s-6,14.7-15,14.7h-9.9c-.3,0-.6-.3-.6-.6v-28.1c0-.3.3-.6.6-.6h9.9ZM575.3,454.8c3.3,0,5.5-2.8,5.5-7s-2.2-7-5.5-7h-2.2v14.1h2.2Z"/>
	</g>
	<g id="note-D5">
		<ellipse class="st1" cx="576.6" cy="450.1" rx="38.7" ry="52.5" transform="translate(-27.6 862.5) rotate(-72.3)"/>
	</g>
	<g id="note-D4">
		<path class="st1" d="M836.1,381.5l-96.5,5.9c-42.4,2.6-78.2,32.3-88.7,73.4h0c-11.2,43.7,9,89.4,48.9,110.6,36.5,19.4,77.2,41,93.2,49.5,29.6-56.2,46.4-120.3,46.4-188.3s-1.1-34.4-3.2-51.1Z"/>
	</g>
	<g id="label-D4">
		<path d="M743,460.6c12,0,20.1,7.8,20.1,19.6s-8,19.6-20.1,19.6h-13.2c-.4,0-.8-.4-.8-.9v-37.5c0-.5.4-.9.8-.9h13.2ZM743.7,489.5c4.4,0,7.3-3.7,7.3-9.4s-3-9.4-7.3-9.4h-3v18.7h3Z"/>
	</g>
	<g id="label-G5">
		<path d="M562.4,542.4c.3,0,.6.3.6.6v13.5c0,.4-.2.8-.5,1-2.6,2.2-6.5,3.5-10.6,3.5-9.2,0-15.3-6.1-15.3-15.3s6.1-15.3,15.3-15.3,6.5.9,8.9,2.5c.3.2.5.5.4.8l-2.1,6.3c-.1.3-.4.4-.8.3-1.7-.9-4-1.5-6.1-1.5-3.9,0-6.6,2.8-6.6,7s2.6,7.1,6.6,7.1,2.6-.3,3.1-.8v-2.5h-3.9c-.4,0-.6-.2-.7-.5l-.6-5.9c0-.4.2-.7.7-.7h11.5ZM555.5,551.3v.2-.2Z"/>
	</g>
	<g id="note-G5">
		<ellipse class="st1" cx="551.5" cy="547.1" rx="33.6" ry="39.4" transform="translate(-214 414.8) rotate(-35)"/>
	</g>
	<g id="label-G4">
		<path d="M686.6,644.8c.5,0,.9.4.9.8v18.1c0,.5-.3,1-.7,1.4-3.4,2.9-8.6,4.6-14.1,4.6-12.3,0-20.4-8.2-20.4-20.4s8.2-20.4,20.4-20.4,8.6,1.2,11.9,3.3c.5.2.6.7.5,1l-2.8,8.3c-.2.4-.6.6-1.1.5-2.3-1.3-5.3-2-8.2-2-5.2,0-8.8,3.7-8.8,9.3s3.5,9.4,8.8,9.4,3.5-.4,4.1-1.1v-3.3h-5.2c-.5,0-.9-.2-.9-.6l-.7-7.8c0-.6.3-1,.9-1h15.4ZM677.5,656.7v.2-.2Z"/>
	</g>
	<g id="note-G4">
		<path class="st1" d="M710.6,577.7c-32.6-17.1-72.6-11.5-99.2,14.1h0c-28.2,27.1-34.5,69.8-15.2,103.9l47.3,83.7c63.1-38.1,115-93,149.5-158.4l-82.4-43.2Z"/>
	</g>
</svg>